<?xml version="1.0" encoding="iso-8859-1"?>
<!-- Generator: Adobe Illustrator 19.0.0, SVG Export Plug-In . SVG Version: 6.00 Build 0)  -->
<svg version="1.1" id="Layer_1" xmlns="http://www.w3.org/2000/svg" xmlns:xlink="http://www.w3.org/1999/xlink" x="0px" y="0px"
	 viewBox="0 0 512 512" style="enable-background:new 0 0 512 512;" xml:space="preserve">
<g>
	<g>
		<g>
			<path fill="#d4d4d4" d="M321.972,394.18H190.028c-4.961,0-8.983,4.022-8.983,8.983v57.488c0,4.961,4.022,8.983,8.983,8.983h131.946
				c4.961,0,8.983-4.022,8.983-8.983v-57.488C330.955,398.202,326.933,394.18,321.972,394.18z M312.989,451.667H199.01v-39.522
				h113.98V451.667z"/>
			<path fill="#d4d4d4" d="M503.017,485.19h-92.519V366.348V17.829c0-4.961-4.022-8.983-8.983-8.983h-291.03c-4.961,0-8.983,4.022-8.983,8.983
				v348.518v118.841H8.983c-4.961,0-8.983,4.022-8.983,8.983c0,4.961,4.022,8.983,8.983,8.983h494.034
				c4.961,0,8.983-4.022,8.983-8.983C512,489.21,507.978,485.19,503.017,485.19z M392.533,485.19H119.468V375.331h50.301h172.463
				h50.302V485.19z M178.751,357.365v-39.522h154.497v39.522H178.751z M392.533,357.364h-41.319v-48.505
				c0-4.961-4.022-8.983-8.983-8.983H169.768c-4.961,0-8.983,4.022-8.983,8.983v48.505h-41.318V26.812h273.066V357.364z"/>
			<path fill="#d4d4d4" d="M149.274,153.197l53.23,35.89c-2.486,5.784-3.863,12.152-3.863,18.836c0,4.961,4.022,8.983,8.983,8.983h28.216v10.208
				c0,6.189-5.035,11.223-11.224,11.223h-16.99c-4.961,0-8.983,4.022-8.983,8.983v28.744c0,4.961,4.022,8.983,8.983,8.983h26.222
				c33.371,0,60.52-27.149,60.52-60.52v-7.622h63.335c4.961,0,8.983-4.022,8.983-8.983c0-66.267-53.912-120.179-120.179-120.179
				c-39.986,0-77.241,19.804-99.655,52.976c-1.334,1.975-1.829,4.4-1.375,6.741S147.298,151.864,149.274,153.197z M217.985,198.939
				c3.823-12.108,15.162-20.912,28.518-20.912c13.361,0,24.701,8.804,28.525,20.912H217.985z M276.405,224.526
				c-0.002,23.464-19.092,42.554-42.555,42.554h-17.239v-10.778h8.007c16.095,0,29.19-13.095,29.19-29.188v-10.208h22.597V224.526z
				 M246.507,105.708c53.333,0,97.257,41.061,101.822,93.23h-54.8c-4.217-22.111-23.7-38.877-47.027-38.877
				c-13.25,0-25.26,5.412-33.935,14.141l-45.469-30.658C186.443,119.702,215.512,105.708,246.507,105.708z"/>
		</g>
	</g>
</g>
<g>
</g>
<g>
</g>
<g>
</g>
<g>
</g>
<g>
</g>
<g>
</g>
<g>
</g>
<g>
</g>
<g>
</g>
<g>
</g>
<g>
</g>
<g>
</g>
<g>
</g>
<g>
</g>
<g>
</g>
</svg>
