<svg version="1.1" id="Uploaded to svgrepo.com" xmlns="http://www.w3.org/2000/svg" xmlns:xlink="http://www.w3.org/1999/xlink" x="0px" y="0px"
	 width="32px" height="32px" viewBox="0 0 32 32" style="enable-background:new 0 0 32 32;" xml:space="preserve">
<style type="text/css">
	.stone_een{fill:#d4d4d4;}
</style>
<path class="stone_een" d="M12,20l3-3h4c1.654,0,3-1.346,3-3V5c0-1.654-1.346-3-3-3H5C3.346,2,2,3.346,2,5v9c0,1.654,1.346,3,3,3h4
	L12,20z M8.5,7h7C15.776,7,16,7.224,16,7.5C16,7.776,15.776,8,15.5,8h-7C8.224,8,8,7.776,8,7.5C8,7.224,8.224,7,8.5,7z M8.5,9h7
	C15.776,9,16,9.224,16,9.5c0,0.276-0.224,0.5-0.5,0.5h-7C8.224,10,8,9.776,8,9.5C8,9.224,8.224,9,8.5,9z M8.5,12
	C8.224,12,8,11.776,8,11.5C8,11.224,8.224,11,8.5,11h7c0.276,0,0.5,0.224,0.5,0.5c0,0.276-0.224,0.5-0.5,0.5H8.5z M27,12h-4v2
	c0,2.206-1.794,4-4,4h-3.586l-2.707,2.707C12.512,20.902,12.256,21,12,21s-0.512-0.098-0.707-0.293L10,19.414V24
	c0,1.657,1.343,3,3,3h4l2.293,2.293c0.391,0.391,1.024,0.391,1.414,0L23,27h4c1.657,0,3-1.343,3-3v-9C30,13.343,28.657,12,27,12z
	 M23.5,22h-7c-0.276,0-0.5-0.224-0.5-0.5c0-0.276,0.224-0.5,0.5-0.5h7c0.276,0,0.5,0.224,0.5,0.5C24,21.776,23.776,22,23.5,22z
	 M23.5,20h-7c-0.276,0-0.5-0.224-0.5-0.5c0-0.276,0.224-0.5,0.5-0.5h7c0.276,0,0.5,0.224,0.5,0.5C24,19.776,23.776,20,23.5,20z"/>
</svg>