<?xml version="1.0" encoding="iso-8859-1"?>
<!-- Generator: Adobe Illustrator 16.0.0, SVG Export Plug-In . SVG Version: 6.00 Build 0)  -->
<!DOCTYPE svg PUBLIC "-//W3C//DTD SVG 1.1//EN" "http://www.w3.org/Graphics/SVG/1.1/DTD/svg11.dtd">
<svg version="1.1" id="Capa_1" xmlns="http://www.w3.org/2000/svg" xmlns:xlink="http://www.w3.org/1999/xlink" x="0px" y="0px"
	 width="160.084px" height="160.084px" viewBox="0 0 160.084 160.084" style="enable-background:new 0 0 160.084 160.084;"
	 xml:space="preserve">
<g>
	<path d="M160.024,77.576l-10.626,41.346c-0.134,0.535-0.511,0.986-1.011,1.218l-31.146,14.212l-5.103,14.193
		c-0.269,0.743-0.969,1.206-1.724,1.206c-0.207,0-0.42-0.042-0.621-0.116c-0.95-0.34-1.443-1.4-1.114-2.338l5.377-14.931
		c0.164-0.462,0.518-0.853,0.962-1.035l31.049-14.188l10.145-39.461c-0.524-0.387-0.944-0.405-1.291-0.387
		c-2.095,0.131-4.835,3.13-6.193,5.128l-8.628,28.838c-0.146,0.512-0.512,0.919-0.986,1.145l-12.452,5.675
		c-3.623,1.669-6.692,1.852-9.146,0.548c-3.379-1.79-4.062-5.699-4.092-5.857c-0.128-0.828,0.292-1.632,1.048-1.967l12.452-5.688
		c2.959-1.352,4.811-3.068,5.498-5.121c0.408-1.205,0.354-2.368,0.177-3.264l-34.537,15.82l-8.337,17.695
		c-0.414,0.913-1.521,1.278-2.433,0.876c-0.91-0.426-1.303-1.51-0.88-2.46l8.616-18.298c0.177-0.396,0.5-0.7,0.896-0.877
		l36.991-16.934c0.822-0.384,1.876-0.073,2.369,0.792c0.085,0.134,1.973,3.684,0.633,7.745c-1.011,3.069-3.52,5.547-7.471,7.35
		l-10.955,5.018c0.335,0.688,0.89,1.497,1.772,1.942c1.412,0.742,3.373,0.523,5.876-0.646l11.697-5.322l8.47-28.302
		c0.049-0.171,0.128-0.342,0.213-0.476c0.451-0.682,4.482-6.698,9.171-7.002c1.284-0.125,3.251,0.256,4.963,2.287
		C160.03,76.404,160.177,77.022,160.024,77.576z M65.064,110.373c-0.183-0.391-0.505-0.695-0.898-0.877L27.189,92.568
		c-0.84-0.366-1.888-0.074-2.363,0.779c-0.088,0.146-1.982,3.689-0.648,7.745c1.011,3.081,3.522,5.554,7.468,7.355l10.958,5.018
		c-0.332,0.694-0.88,1.498-1.766,1.948c-1.708,0.95-4.147,0.158-5.885-0.651l-11.697-5.328l-8.449-28.302
		c-0.046-0.165-0.131-0.342-0.219-0.469c-0.448-0.677-4.503-6.711-9.198-7.003c-1.19-0.125-3.221,0.256-4.957,2.286
		c-0.387,0.451-0.523,1.062-0.375,1.659l10.644,41.333c0.131,0.53,0.511,0.975,1.011,1.206l31.14,14.206l5.112,14.2
		c0.268,0.743,0.974,1.205,1.726,1.205c0.207,0,0.42-0.048,0.63-0.122c0.95-0.334,1.44-1.394,1.099-2.338l-5.383-14.924
		c-0.167-0.463-0.518-0.847-0.965-1.035l-31.04-14.182L3.871,77.689c0.53-0.387,0.977-0.387,1.291-0.387
		c2.094,0.131,4.85,3.129,6.214,5.122l8.607,28.838c0.149,0.523,0.511,0.926,0.989,1.15l12.453,5.676
		c3.617,1.662,6.71,1.802,9.161,0.548c3.373-1.803,4.046-5.7,4.077-5.864c0.131-0.816-0.292-1.626-1.042-1.961l-12.452-5.688
		c-2.95-1.352-4.808-3.068-5.499-5.127c-0.399-1.193-0.35-2.362-0.167-3.251l34.535,15.808l8.327,17.695
		c0.436,0.913,1.507,1.29,2.43,0.883c0.923-0.421,1.303-1.517,0.88-2.454L65.064,110.373z M18.68,84.293V12.154
		c0-1.014,0.822-1.827,1.833-1.827h119.07c1.011,0,1.833,0.813,1.833,1.827v72.133c0,1.022-0.822,1.826-1.833,1.826H90.084v6.649
		h8.281c1.011,0,1.833,0.804,1.833,1.827c0,1.022-0.822,1.826-1.833,1.826H61.733c-1.011,0-1.833-0.804-1.833-1.826
		c0-1.023,0.822-1.827,1.833-1.827h8.281v-6.649H20.519C19.502,86.119,18.68,85.31,18.68,84.293z M22.346,13.984v59.999H137.75
		V13.984H22.346z M92.922,23.148h35.67v21.644c0,1.021,0.822,1.833,1.833,1.833s1.833-0.812,1.833-1.833V21.321
		c0-1.022-0.822-1.826-1.833-1.826H92.922c-1.011,0-1.833,0.804-1.833,1.826C91.089,22.339,91.911,23.148,92.922,23.148z"/>
</g>
<g>
</g>
<g>
</g>
<g>
</g>
<g>
</g>
<g>
</g>
<g>
</g>
<g>
</g>
<g>
</g>
<g>
</g>
<g>
</g>
<g>
</g>
<g>
</g>
<g>
</g>
<g>
</g>
<g>
</g>
</svg>
